<svg xmlns="http://www.w3.org/2000/svg" width="48" height="48" viewBox="0 0 48 48" fill="none">
  <path d="M24 2L6 10V22C6 33.1 13.9 43.4 24 46C34.1 43.4 42 33.1 42 22V10L24 2Z" fill="#1A1A1A" stroke="#0070F3" stroke-width="2" />
  <path d="M24 6L10 12V21.5C10 30.1 16.3 38.2 24 40C31.7 38.2 38 30.1 38 21.5V12L24 6Z" fill="#1A1A1A" stroke="#00CC66" stroke-width="2" />
  <path d="M24 12L18 16V22C18 25.3 20.7 28 24 28C27.3 28 30 25.3 30 22V16L24 12Z" fill="#1A1A1A" />
  <circle cx="24" cy="20" r="3" fill="#00CC66" />
  <path d="M21 26L27 26" stroke="#00CC66" stroke-width="2" stroke-linecap="round" />
</svg> 